<svg width="29" height="32" viewBox="0 0 29 32" fill="none" xmlns="http://www.w3.org/2000/svg">
<path d="M4.02891 10.1836C3.94678 7.58309 3.79646 5.9103 3.66965 4.88122C3.77174 4.51996 3.89036 4.20993 4.03606 3.97019C4.40281 3.36672 4.64235 2.95383 4.78704 2.92029C4.91437 2.89077 5.05788 2.90771 5.43925 3.08058C5.75033 3.22159 6.2828 3.4715 8.23779 4.7622C10.1928 6.0529 13.4709 8.31581 16.4627 10.0715C19.4544 11.8272 22.088 13.0226 23.494 13.7044C25.104 14.485 25.5425 14.6463 25.5937 14.9741C25.6132 15.0993 25.2576 15.436 24.1589 16.1901C23.42 16.6974 22.3259 17.4298 18.8969 19.5037C15.4678 21.5775 10.1271 24.0505 7.27556 25.7244C4.42405 27.3982 4.31884 27.4302 4.22922 27.4468C4.1396 27.4634 4.06775 27.4646 4.00967 27.4439C3.95159 27.4231 3.89895 27.3849 3.87972 27.313C3.83655 27.1517 3.80042 26.8128 3.91005 25.6487C3.99753 24.7199 3.91329 23.989 4.0097 20.8996C4.10611 17.8102 4.12859 13.3397 4.02891 10.1836Z" fill="#222222"/>
<path d="M0.0586518 9.32531C0.0708382 9.37218 0.0539879 9.56492 0.0613882 9.64737C-0.0491888 9.55822 0.0146259 9.15591 0.0586518 9.32531ZM7.92847 18.0971C7.90297 18.0235 7.87742 17.9505 7.85185 17.8769C7.83194 18.084 7.84731 18.3636 7.81894 18.557C7.8142 18.5886 7.73873 18.5053 7.73408 18.58C7.72944 18.6547 7.83465 18.6421 7.84403 18.7505C7.85437 18.8742 7.77061 19.4291 7.76785 19.6248C7.76224 20.0856 7.77611 20.5507 7.76864 21.0169C7.76471 21.273 7.75557 21.5213 7.73342 21.7722C7.67451 21.0613 7.57607 21.7735 7.60552 21.974C7.6128 22.0164 7.80589 22.0171 7.74503 22.7228C7.70798 23.1719 7.43281 22.7531 7.56615 23.5058C7.76613 22.9305 7.74666 23.4942 7.75207 23.9546C7.75229 24.0319 7.72456 24.6846 7.7229 25.0639C7.72295 25.1863 7.81831 25.3916 7.80963 25.5799C7.80351 25.7088 7.74125 25.8047 7.72631 25.9986C7.72606 26.0017 7.72581 26.0049 7.72555 26.0081C7.70832 26.2505 7.69363 26.4864 7.6858 26.6682C7.68183 26.7562 7.68026 26.8359 7.6795 26.8522C7.66796 26.8507 7.71522 26.8691 7.58473 26.3215C7.44667 25.7688 7.06875 25.0837 6.58811 24.6359C6.11028 24.1786 5.63426 23.9569 5.29924 23.8372C5.29872 23.837 5.29821 23.8368 5.29769 23.8366C5.2982 23.8368 5.29871 23.837 5.29922 23.8373C5.76605 24.03 6.23156 24.3818 6.45911 24.6263C6.69509 24.8748 6.74741 24.9813 6.68688 24.9253C6.59134 24.8144 5.84002 24.1563 5.24663 23.9843C4.16651 23.6368 3.69729 23.8195 3.55539 23.8126C3.5091 23.8169 3.24976 23.8757 3.14905 23.9091C3.02708 23.9465 2.96423 23.9705 2.92288 23.9857C2.83595 24.0186 2.8213 24.0256 2.8104 24.0318C2.76052 24.0695 2.77348 24.0769 2.81154 24.071C2.83409 24.0669 2.86317 24.0578 2.96451 24.023C3.01521 24.0061 3.0869 23.981 3.20866 23.9464C3.3209 23.9128 3.53098 23.8692 3.56535 23.8663C3.67096 23.8569 3.87397 23.8253 4.22524 23.8433C4.56647 23.8537 5.05073 23.9812 5.22049 24.0574C5.28501 24.0851 5.29005 24.0912 5.21646 24.0687C5.10394 24.033 4.82503 23.9467 4.49501 23.9132C3.92998 23.8538 3.71044 23.9171 3.57782 23.9335C3.55026 23.9374 3.36459 23.9763 3.24749 24.0122C3.12925 24.0469 3.04793 24.0771 2.9932 24.098C2.8816 24.1414 2.85096 24.1568 2.82259 24.1692C2.77687 24.1899 2.78428 24.1861 2.79359 24.1801C2.81685 24.166 2.87037 24.1351 2.92528 24.1028C3.0357 24.0378 3.16596 23.9601 3.29381 23.8831C3.02493 23.9995 3.51668 23.501 3.67291 23.5092C3.50641 23.3391 5.22152 22.8413 5.4171 22.6354C5.44442 22.6066 5.28225 22.6374 5.40734 22.5418C5.47147 22.4934 5.62149 22.4043 5.88963 22.2718C5.98016 22.2273 5.98148 22.307 6.02442 22.2753C6.05225 22.2551 6.10305 21.971 6.34116 21.9799C6.42533 21.9858 6.09291 22.3319 6.94975 21.7983C6.49376 21.7842 8.10938 21.0393 8.41513 20.9486C8.34403 20.9513 8.2731 20.9539 8.20234 20.9565C8.52196 20.8825 8.53633 20.7885 8.6013 20.7595C8.86474 20.6418 9.24805 20.5316 9.47919 20.4048C9.75197 20.2556 9.68648 20.1308 10.032 20.0153C9.94264 20.0262 9.85161 20.0379 9.76165 20.0491C9.98712 19.9419 10.2097 19.8363 10.4331 19.7304C10.0087 20.1572 10.5472 19.682 10.5857 19.6577C10.6476 19.6184 10.589 19.7342 10.6933 19.6701C10.7037 19.663 10.6554 19.607 10.8183 19.5145C11.1592 19.3212 11.1455 19.4298 11.2908 19.3541C11.304 19.3468 11.2277 19.3132 11.4725 19.1703C12.248 18.7169 11.4917 19.2164 11.4646 19.2403C11.4295 19.2715 11.8284 19.3714 11.1033 19.6352C11.3467 19.5448 11.4236 19.64 11.4508 19.6293C11.4748 19.6198 11.8626 19.4018 11.8822 19.387C12.0574 19.2511 11.8494 19.266 11.8805 19.2335C11.9062 19.2071 12.429 19.0577 12.4262 18.7817C12.7562 18.8666 12.3917 19.0322 12.0269 19.2592C11.9929 19.3292 12.4312 19.1543 12.4529 19.1428C12.9896 18.8646 12.6062 18.8526 12.6684 18.6859C12.7009 18.5987 12.9774 18.5985 12.6992 18.5544C13.1752 18.2868 12.9263 18.5256 12.9643 18.5221C13.0213 18.5162 13.1677 18.3856 13.192 18.3802C13.2274 18.3723 13.1463 18.4802 13.2782 18.4342C13.3 18.4262 13.4503 18.2348 13.1745 18.3254C13.52 18.1604 13.4514 18.1 13.6462 18.1912C13.7268 17.7819 13.9041 18.272 14.0037 18.2398C14.2694 18.1531 14.0788 17.9657 14.0859 17.9479C14.1363 17.8316 14.8429 17.5511 14.9851 17.4306C15.0104 17.6263 14.4641 17.7157 14.3772 17.8022C14.088 18.0918 14.9053 17.6224 14.7649 17.9596C14.8392 17.8476 14.9144 17.7348 14.9875 17.6229C15.2473 17.6496 15.0119 17.8532 15.4943 17.5257C15.516 17.3678 15.1443 17.7415 15.1845 17.6043C15.21 17.5231 15.4962 17.3507 15.4876 17.3195C15.4747 17.284 15.2317 17.4689 15.2454 17.3954C15.2784 17.237 16.2938 16.8029 15.5977 17.2712C15.7994 17.1562 16.0283 17.3116 16.1639 17.1456C16.2503 17.0378 15.454 17.1015 16.426 16.6143C16.5044 16.7046 16.0694 16.8605 16.0612 16.8748C16.0529 16.8945 16.2569 17.0821 16.276 17.0861C16.3231 17.0941 16.7751 16.7649 17.1188 16.5636C17.2851 16.4663 17.4233 16.4001 17.5109 16.3937C17.3489 16.3138 18.2605 15.9065 18.3265 15.8111C18.3448 15.785 18.2029 15.762 18.2244 15.7373C18.3593 15.5861 18.8854 15.4595 19.0907 15.3379C19.3194 15.2026 19.2493 15.1509 19.2619 15.1433C19.3647 15.085 19.3134 15.1811 19.3743 15.1433C19.4675 15.0858 20.1004 14.7047 20.1263 14.6743C20.1335 14.6656 19.9831 14.6511 20.1091 14.5514C20.1301 14.5344 20.1751 14.6363 20.5498 14.3431C20.9974 13.9912 20.1445 14.4393 20.282 14.2162C20.677 14.1591 20.5797 14.0288 20.6685 13.9872C20.7003 13.9723 20.9877 13.9517 21.2073 13.798C21.058 13.922 20.9057 14.0467 20.7512 14.172C20.9278 14.088 21.225 13.8601 21.3693 13.7976C21.4412 13.7662 21.4494 13.896 21.5863 13.802C21.6131 13.7824 21.58 13.4759 21.2864 13.8163C21.2041 13.7529 21.41 13.6945 21.4745 13.6183C21.4836 13.6071 21.4404 13.4391 21.5969 13.4572C21.635 13.4606 21.6381 14.0393 22.1229 13.2907C22.1389 13.2662 22.0274 13.27 22.0422 13.2448C22.046 13.2385 22.0734 13.2212 22.1071 13.201C22.1649 13.1666 22.2391 13.1247 22.2476 13.1121C22.261 13.0918 22.1444 13.093 22.1592 13.0671C22.2331 12.9352 22.5269 13.0459 22.2865 13.1898C22.3817 13.1627 22.4771 13.1349 22.5688 13.1089C22.3763 13.0059 22.6539 12.9811 22.7392 12.9099C23.0128 12.6807 22.9457 12.6712 22.9233 12.6339C22.8918 12.602 22.8245 12.5947 22.8285 12.549C22.8284 12.4804 22.8541 12.5331 22.894 12.5752C22.9121 12.5979 22.932 12.619 22.9316 12.6407C22.9207 12.6773 22.9426 12.6372 22.7235 12.8578C22.6926 12.8872 22.8222 12.6908 22.8147 12.6666C22.8166 12.6469 22.8095 12.6367 22.7588 12.6812C22.7293 12.7094 22.6939 12.7401 22.5882 12.8765C22.5359 12.9474 22.4598 13.0427 22.3292 13.2785C22.2601 13.4082 22.1739 13.5724 22.0762 13.867C21.9852 14.1856 21.8215 14.6435 21.9437 15.5438C21.9848 16.2204 22.7189 17.3172 23.0355 17.4937C22.9124 17.3826 22.7144 17.2027 22.4823 16.8538C22.2493 16.5142 22.0342 15.9655 21.9784 15.5383C21.8361 13.8003 22.3062 13.5261 22.404 13.2289C22.381 13.3113 22.3254 13.4301 22.2303 13.6973C22.1645 13.9654 21.9122 14.3758 22.0539 15.5266C22.118 16.1266 22.6751 17.082 22.9205 17.304C23.173 17.5836 23.2135 17.6262 23.2315 17.6454C23.3816 17.7612 23.3139 17.7009 23.3227 17.7063C23.31 17.698 23.3101 17.7033 23.1039 17.6544C23.0682 17.6463 23.0095 17.5653 22.9161 17.5458C22.7175 17.503 22.8343 17.5752 22.9819 17.661C23.1373 17.7503 23.2507 17.8216 23.225 17.8517C23.2274 17.8742 23.1205 17.8238 22.8969 17.7151C22.6855 17.6122 22.4338 17.4845 22.4231 17.4693C22.3218 17.333 22.8611 17.6412 22.7968 17.5016C22.7884 17.4748 22.3301 17.2729 21.8675 17.059C21.5653 16.9202 21.2479 16.7735 21.1382 16.7032C20.8416 16.5126 20.8062 16.2113 20.6799 16.4702C20.7098 16.171 20.5488 16.3078 20.5073 16.2857C20.0198 16.022 20.0181 16.018 19.576 15.8318C19.4786 15.7906 19.4346 15.6732 19.3953 15.67C19.3719 15.6682 19.3681 15.7688 19.2593 15.7466C19.1087 15.7167 18.3456 15.2271 18.3102 15.1507C18.2739 15.0754 18.6589 15.3033 18.6254 15.1926C18.3411 15.0393 18.0553 14.9159 17.7692 14.757C17.6514 14.6911 17.7399 14.6714 17.6886 14.6433C17.6665 14.6314 17.2281 14.4582 17.2352 14.4861C17.2527 14.5558 18.5524 15.1905 18.1675 15.1063C18.0934 15.0906 17.9239 14.8516 17.8857 15.016C16.8042 14.4168 15.7301 13.7883 14.6705 13.1254C14.621 13.0943 14.5714 13.0632 14.5218 13.032C14.5766 13.0534 14.6311 13.0761 14.6854 13.0999C15.3356 13.3871 15.9608 13.8458 16.6009 14.1814C16.6948 14.2311 17.0068 14.4167 17.0068 14.3227C16.4337 13.9921 15.6875 13.6269 15.1607 13.2601C15.1438 13.2483 15.2461 13.2215 15.1856 13.173C15.115 13.1167 14.9129 13.0463 14.7542 12.9828C14.6569 12.9442 14.5769 12.9088 14.5571 12.8833C14.5494 12.8705 14.8272 12.9203 14.7894 12.8258C14.6931 12.5837 14.4671 12.8611 14.317 12.7668C14.1983 12.6937 13.5049 12.0728 13.2565 12.0448C12.9898 12.0161 13.795 12.4544 13.6891 12.4991C13.1082 12.2565 12.6311 11.8394 12.1352 11.5388C12.1264 11.5336 12.1618 11.6435 12.047 11.5829C11.8471 11.4772 11.8537 11.357 11.7707 11.2841C11.6807 11.2056 11.3225 10.9931 11.2967 10.9308C11.2935 10.9227 11.4205 10.8811 11.4329 10.8855C11.6085 10.9478 11.5894 11.0957 11.6025 11.1061C11.6519 11.1439 11.7311 11.1333 11.7771 11.1665C11.8528 11.221 11.8703 11.2889 11.9719 11.3587C12.042 11.407 12.0221 11.2855 12.089 11.333C12.113 11.3507 12.2755 11.7018 12.4155 11.5371C12.452 11.4878 10.2833 9.98406 10.0414 9.88256C10.2153 10.028 10.389 10.1729 10.5631 10.3176C10.2143 10.0147 9.66399 9.85557 9.77106 9.6232C8.66521 8.87248 7.56682 8.10839 6.50537 7.38626C6.22861 7.19844 5.95627 7.01556 5.6842 6.83623C5.46092 6.66855 5.67418 6.60993 5.26638 6.41074C5.338 6.51614 5.40831 6.62143 5.4812 6.7289C5.29764 6.56409 4.4843 5.99135 4.40054 5.99597C4.38805 5.99481 4.28832 6.10599 4.16896 6.06299C4.14759 6.05527 4.12768 6.04376 4.10358 6.02727C4.05911 5.98282 4.07825 5.91135 4.13146 5.91206C4.16506 5.91423 4.23457 5.94213 4.3697 5.97513C4.49965 6.00869 4.70458 6.03425 4.79622 6.0327C4.93518 6.02793 5.01431 5.97588 5.36428 5.9063C5.40638 5.89698 5.44252 5.88807 5.47321 5.88017C6.05623 5.72713 6.2122 5.59184 6.35889 5.51392C6.48402 5.43769 6.54956 5.39137 6.59217 5.36499C6.67844 5.30972 6.70064 5.30537 6.72611 5.29242C6.75804 5.28309 6.89424 5.1464 6.91218 4.96018C6.85175 5.01104 6.80705 5.08442 6.48503 5.32307C6.87059 5.00887 6.8595 4.94133 6.89461 4.88783C6.91255 4.84132 6.89412 4.83636 6.87774 4.82983C6.83413 4.83152 6.83351 4.76884 6.79202 4.78395C6.7627 4.80782 6.83694 4.81909 6.81167 4.85035C6.78106 4.88581 6.73966 4.94017 6.60976 5.06048C6.45254 5.16886 6.33223 5.41799 5.42556 5.6746C5.12356 5.75117 4.7157 5.73955 4.55665 5.70871C4.3782 5.67981 4.31497 5.65509 4.27349 5.64169C4.19963 5.61447 4.21679 5.61413 4.22253 5.61251C4.24414 5.61223 4.26343 5.61025 4.25366 5.59634C4.24971 5.58451 4.21045 5.56125 4.25451 5.57202C4.28157 5.57737 4.32717 5.59665 4.501 5.62873C4.65053 5.66327 5.09999 5.68426 5.40913 5.60374C5.97559 5.46091 6.19256 5.28256 6.34737 5.18094C6.496 5.07315 6.57109 5.00051 6.62463 4.94979C6.72963 4.84691 6.75694 4.81137 6.77869 4.78991C6.81531 4.75214 6.80367 4.78045 6.79745 4.81104C6.72624 4.79203 6.52286 5.13914 6.37568 5.39208C6.40022 5.35469 6.39706 5.36079 6.39275 5.35718C6.36652 5.34821 6.30333 5.30114 6.23458 5.29089C6.22984 5.28413 6.205 5.36106 6.15745 5.50434C6.11222 5.63953 6.06091 5.77273 6.03573 5.61386C6.0259 5.53409 6.15068 5.24943 6.15125 5.25475C5.93398 5.2065 6.06436 5.82561 6.04895 5.88796C5.95948 6.13341 5.98914 5.36462 5.83346 5.92969C5.71674 6.39914 5.94305 5.98033 5.96267 6.17516C5.97325 6.27605 5.72142 6.83745 5.9169 6.85789C5.91239 6.92429 5.90121 6.95642 5.88761 6.96968L5.90894 6.8106C5.89223 6.8256 5.86848 6.81313 5.85128 6.80467L5.83043 6.9602C5.82035 6.95346 5.81258 6.94873 5.80956 6.95518C5.80938 6.95557 5.80921 6.95607 5.80904 6.95666L5.82972 6.80246C5.82053 6.83455 5.84957 7.1615 5.80695 7.26033C5.80128 7.27293 5.7018 7.22823 5.69293 7.24106C5.67569 7.26769 5.69045 7.5793 5.70093 7.59035C5.70688 7.59791 5.79537 7.52514 5.81697 7.55486C5.84006 7.58967 5.82843 7.8766 5.85633 7.89097C5.89367 7.91095 5.85732 7.56031 5.95905 7.61758C5.93463 7.77914 6.01833 8.03524 6.10973 8.13317C6.08388 8.10909 6.06736 7.95514 6.07273 7.90211C6.18882 7.91506 6.2282 8.12142 6.17828 8.15671L6.16925 8.08096C6.16218 8.08485 6.1533 8.08631 6.14255 8.0845L6.15149 8.15954C6.14259 8.15691 6.13241 8.15123 6.12093 8.14189C6.1289 8.14957 6.13633 8.15563 6.14332 8.16041L6.13441 8.08558C6.18738 8.1091 6.21531 8.08033 6.26984 8.09785C6.28513 8.10208 6.29952 8.1732 6.32851 8.1916C6.33288 8.18859 6.37388 8.10013 6.40582 8.11218C6.43423 8.12148 6.45312 8.17382 6.47812 8.29699C6.5026 8.4172 6.52324 8.56918 6.51976 8.59056C6.50237 8.71766 6.37802 8.29808 6.31515 8.29845C6.30279 8.28244 6.24828 8.65057 6.23881 8.66206C6.13025 8.69763 6.14102 8.30103 6.04932 8.37003C6.04327 8.45602 6.04025 8.55824 6.03617 8.65996C5.94278 8.45081 5.88519 8.21688 5.85841 8.12219L5.86645 8.18967C5.83777 8.05024 5.81237 7.93219 5.75512 7.88284C5.77161 7.98855 5.78756 8.09571 5.79559 8.19716L5.78778 8.13155C5.79889 8.2713 5.80433 8.59409 5.61945 8.6211C5.50869 8.63686 5.40415 8.43333 5.37859 8.45139C5.28202 8.48854 5.44944 8.78748 5.44605 8.80312C5.44168 8.81417 5.43652 8.81985 5.43073 8.82085C5.43073 8.82085 5.43072 8.82085 5.43072 8.82085C5.37195 8.82425 5.24743 8.38844 5.22232 8.3997C5.16872 8.37574 5.0027 8.57523 4.96035 8.58768C4.94798 8.57248 4.85825 8.33512 4.79693 8.43033C4.73222 8.51506 4.78197 8.78797 4.77564 8.80084C4.73823 8.85191 4.61317 8.41195 4.58969 8.42555C4.57339 8.4167 4.52806 8.64695 4.50678 8.66448C4.48323 8.67243 4.39824 8.50872 4.31287 8.46342C4.24827 8.42584 4.22734 8.56966 4.21461 8.54762C4.20995 8.53836 4.19161 8.44101 4.17731 8.34514L4.18002 8.36791C4.16736 8.26613 4.157 8.16502 4.15127 8.15595C4.13399 8.12827 4.07285 8.22608 4.05465 8.21425C4.02804 8.19704 4.04331 8.06701 4.01922 8.08546C4.00919 8.09306 3.94384 8.2517 3.88216 8.39939L3.88039 8.38452C3.83184 8.50158 3.78681 8.61355 3.75837 8.61729C3.70335 8.62321 3.71708 8.47804 3.70225 8.40815L3.70346 8.41827C3.69475 8.37221 3.67147 8.35565 3.60453 8.42873C3.56999 8.45974 3.5252 8.52207 3.4688 8.62097C3.46636 8.62508 3.51842 8.74643 3.51669 8.75051C3.45394 8.84417 3.25984 8.45311 3.37292 8.95341C3.07536 8.03057 3.18919 8.86413 2.98661 8.75662C2.94672 8.73464 2.90265 8.62399 2.87141 8.51834C2.87134 8.51593 2.87 8.50878 2.86999 8.50636C2.8424 8.40631 2.8249 8.31221 2.81966 8.3118C2.73736 8.35549 2.80877 8.46652 2.77977 8.5159C2.77979 8.51879 2.78139 8.52737 2.78148 8.53027C2.78042 8.5323 2.7792 8.53424 2.77781 8.53607C2.77547 8.53912 2.77162 8.53749 2.76657 8.53224C2.76647 8.52927 2.76483 8.52045 2.76481 8.51748C2.72506 8.47779 2.62215 8.21387 2.57424 8.2886C2.55924 8.31197 2.56443 8.43046 2.5743 8.53762C2.57432 8.54161 2.57653 8.55344 2.57666 8.55743C2.58816 8.65581 2.6039 8.74533 2.60225 8.75302C2.57086 8.91511 2.47794 8.73821 2.44305 8.778C2.4194 8.8087 2.45805 9.03434 2.45382 9.03723C2.44612 9.0545 2.2802 8.76362 2.23192 8.69072C2.19386 8.64084 2.17832 8.8511 2.15973 8.81543C2.13151 8.7628 2.11806 8.68941 2.11199 8.61906C2.11178 8.61258 2.10819 8.59336 2.10816 8.58688C2.09739 8.38663 2.14317 8.19967 1.96409 8.55601C1.96031 8.56369 1.95921 8.58111 1.95966 8.60258C1.95971 8.60985 1.96373 8.63142 1.96397 8.63869C1.96723 8.70339 1.98569 8.80328 1.98388 8.8073C1.94239 8.89287 1.9 8.76243 1.85702 8.65287C1.85677 8.64503 1.85243 8.62176 1.85238 8.61391C1.83448 8.56797 1.8157 8.52619 1.79375 8.51032C1.72799 8.46269 1.72921 8.57528 1.72632 8.62724C1.72637 8.63576 1.73108 8.66102 1.73136 8.66954C1.73086 8.699 1.72824 8.71091 1.7119 8.67212C1.71161 8.6635 1.70685 8.63793 1.70679 8.6293C1.69762 8.60724 1.68388 8.56728 1.66393 8.50155C1.65649 8.54938 1.65103 8.59368 1.6473 8.63559C1.64736 8.64453 1.6523 8.67105 1.65259 8.67999C1.64171 8.91898 1.68314 9.10283 1.73908 9.31308C1.68395 9.1108 1.59898 8.85633 1.53426 8.69568C1.53395 8.68611 1.52865 8.65771 1.5286 8.64813C1.42472 8.38924 1.32294 8.3561 1.31075 8.67116C1.31082 8.6819 1.31676 8.71374 1.31711 8.72448C1.31728 8.83981 1.33752 9.01986 1.37032 9.18782C1.31667 8.8658 1.15993 8.89892 1.14097 8.7914C1.13962 8.78297 1.13962 8.76796 1.14018 8.74795C1.1398 8.73626 1.13334 8.70161 1.13327 8.68992C1.14165 8.55577 1.20338 8.17699 0.897215 8.40798C0.852999 8.44203 0.940788 8.74823 0.838416 8.65987C0.797863 7.90233 0.775274 8.6498 0.765477 8.65182C0.514687 8.66963 0.652 6.75163 0.695534 6.4662C0.696145 6.40063 0.692446 6.33636 0.68615 6.27399C0.692731 6.24179 0.699393 6.14315 0.70795 6.11142C0.68999 5.87121 0.61286 5.65556 0.622843 5.59916C0.663702 5.37309 0.714362 5.57626 0.754685 5.53135C0.790949 5.49275 0.762989 4.79042 0.785357 4.74772C0.851926 4.61853 0.919828 4.78034 0.928159 4.76702C1.01344 4.63232 1.20596 3.58555 1.4339 3.17734C1.35348 3.17415 1.09085 3.86297 1.15254 3.39378C1.2505 2.81384 1.57583 2.86803 1.58485 2.86865C1.63251 2.77649 1.6864 2.67914 1.7471 2.57908C1.85676 2.39831 1.96631 2.21339 2.10897 1.98548C2.18232 1.86958 2.25932 1.74672 2.38739 1.56872C2.45413 1.47787 2.52933 1.37391 2.67649 1.21064C2.75435 1.12642 2.84614 1.02725 3.02139 0.882599C3.21137 0.747067 3.42761 0.508993 4.18158 0.308583C4.53019 0.219181 5.02839 0.210296 5.31434 0.256135C5.61639 0.29851 5.7984 0.355348 5.9465 0.40166C6.23321 0.496031 6.39269 0.569402 6.54661 0.637587C7.56291 1.11037 8.17791 1.53627 8.87071 1.96803C8.94369 1.82751 8.00749 1.37793 7.99045 1.34787C7.94886 1.17179 9.41378 2.10038 9.54291 2.25828C9.43072 2.14461 9.31797 2.03106 9.2016 1.91581C9.40688 1.91467 9.63046 2.1206 9.85692 2.30976C9.98806 2.41957 10.1223 2.52477 10.2571 2.57944C10.373 2.62591 10.2147 2.43781 10.2208 2.43628C10.3767 2.45659 10.5293 2.62251 10.3402 2.60834C10.6703 2.72121 10.5762 2.77685 10.784 2.92461C10.795 2.93235 10.7425 2.81059 10.9294 2.89965C11.0144 2.93975 11.4379 3.22304 11.5267 3.20671C11.5647 3.20021 11.5076 2.82587 11.3473 3.00781C10.9554 2.60444 11.1399 3.00075 10.9662 2.87787C10.9398 2.85877 11.0769 2.78871 10.5916 2.54062C10.812 2.39666 11.2291 2.89337 11.3331 2.92778C11.549 2.99984 10.8679 2.39345 10.6225 2.45676C10.7923 2.34312 10.5813 2.39857 10.4169 2.27991C10.2331 2.14764 10.3476 2.15625 10.2458 2.08832C10.1572 2.02911 10.1023 2.00826 10.0622 1.99876C9.9719 1.97607 9.9576 2.01048 9.84344 1.83698C9.86765 2.29763 9.41813 1.61658 9.28277 1.41499C9.56673 1.57716 9.84775 1.74037 10.1254 1.90312C10.1529 1.91922 10.1807 1.93547 10.2086 1.95186C10.2027 1.9245 10.1968 1.89719 10.1909 1.86993C10.2653 1.92241 10.3442 1.97797 10.4174 2.02991C10.3948 2.03739 10.3723 2.04489 10.3498 2.05243C10.8119 2.21321 10.8294 2.39004 10.861 2.41281C11.2617 2.69957 11.7301 3.01232 12.1355 3.28395C12.1962 3.32453 12.2229 3.19626 12.6136 3.57157C12.7381 3.69098 12.5518 3.68066 12.7206 3.77606C13.0631 3.69493 12.9458 3.86336 13.0055 3.90343C13.1757 4.01648 13.3162 4.03304 13.3322 4.04282C13.548 4.17391 13.8512 4.38673 14.0877 4.53046C14.0925 4.53248 14.0153 4.38723 14.153 4.50559C14.2004 4.5467 14.4899 5.13996 14.9636 5.31444C14.8685 5.22596 14.773 5.13701 14.678 5.04814C14.7876 5.15863 15.7193 5.65522 15.5512 5.43998C15.4485 5.30902 15.0067 5.28341 15.0846 5.0845C15.3459 5.33308 17.0206 6.27645 17.1207 6.38891C17.1345 6.40555 16.9916 6.39749 17.0111 6.41968C17.0263 6.43711 17.4065 6.65022 17.4426 6.70207C17.464 6.73317 17.2779 6.66906 17.2786 6.69805C17.2811 6.72052 17.7315 7.0257 17.8014 6.96765C17.6698 6.9293 17.3647 6.71043 17.5697 6.75029C17.5958 6.75567 17.6794 6.86989 17.7116 6.87596C18.0086 6.93265 17.2686 6.51748 17.1559 6.446C17.4818 6.56483 17.858 6.82263 18.2331 7.05467C18.45 7.18891 18.6663 7.31456 18.8742 7.40328C19.0543 7.58757 18.5014 7.31496 18.7157 7.50508C19.1615 7.89859 18.8985 7.4965 18.9189 7.49784C19.0783 7.50692 19.3231 8.08216 19.4647 7.82697C19.6288 7.96775 19.5505 7.9669 19.8313 8.07696C19.8065 8.04041 19.7814 8.00373 19.7566 7.96711C20.1261 7.97832 20.5467 8.68395 20.4865 8.68827C20.3185 8.69822 20.0589 8.4055 20.0302 8.3935C19.9876 8.37567 19.7315 8.57541 19.4139 8.09857C19.1353 8.17251 20.0567 8.60272 19.5866 8.50023C19.8684 8.63261 20.9468 9.35562 21.1543 9.36075C21.1793 9.36068 21.1769 9.13793 21.4159 9.37254C21.5289 9.48371 21.2027 9.32035 21.2438 9.39173C21.3638 9.6228 24.0288 10.8162 24.591 11.0717C24.6264 11.0885 24.587 11.1376 24.6219 11.1538C24.6424 11.1634 24.6747 11.1749 24.7141 11.188C24.8716 11.2389 25.1579 11.3153 25.2945 11.406C24.9731 11.1261 25.6923 11.4603 25.8987 11.5754C26.2038 11.7465 26.1448 11.8391 26.2901 11.9403C26.4303 12.0398 26.5983 12.1231 26.9192 12.333C27.0811 12.4449 27.3003 12.5866 27.6071 12.9198C27.9139 13.2337 28.3069 13.9309 28.3881 14.538C28.5095 15.5622 28.2501 15.9553 28.1507 16.228C28.0247 16.4967 27.938 16.6199 27.8583 16.7371C27.7087 16.9484 27.6126 17.0518 27.5301 17.1424C27.3691 17.3146 27.2599 17.4099 27.1588 17.4923C26.9613 17.6503 26.8063 17.7334 26.6585 17.7671C26.8122 17.9535 25.9281 18.1664 25.6426 18.3516C25.6417 18.3522 25.6408 18.3528 25.6399 18.3534C25.4209 18.5021 25.1779 18.8552 25.537 18.7282C25.141 18.9841 24.7505 19.2928 24.3948 19.5383C24.337 19.5783 24.381 19.4665 24.2825 19.5373C24.2744 19.5438 24.2959 19.6119 24.2139 19.6727C23.5217 20.1837 23.7959 19.8355 23.638 19.8846C23.5489 19.9122 23.4873 19.9367 23.4447 19.9588C23.8575 19.6845 24.3281 19.3508 24.4594 19.2632C24.2644 19.2099 23.5404 19.8849 23.2785 19.999C23.2695 20.0029 23.2535 19.914 23.2449 19.9186C23.2447 19.9188 23.2445 19.9189 23.2444 19.919C23.1508 19.9705 22.597 20.3509 22.7664 20.3633C22.814 20.3651 23.0732 20.2047 23.3832 19.9997C23.3068 20.0697 23.4211 20.1089 23.408 20.1218C23.2522 20.2745 22.7586 20.4732 22.5969 20.5583C22.559 20.5785 22.5931 20.6282 22.5872 20.632C22.4387 20.7077 22.4077 20.5248 22.3522 20.7672C21.9812 20.7443 22.8226 20.4397 22.6946 20.3549C22.5995 20.2903 20.9804 21.3494 21.0741 21.4881C21.059 21.4762 21.0246 21.4709 20.9641 21.4778C20.8345 21.4909 20.392 21.779 20.3206 21.8579C20.3201 21.8585 20.3195 21.8591 20.319 21.8597C20.3081 21.8734 20.3985 22.0102 20.3817 22.0221C20.3407 22.0527 19.6752 22.298 19.5042 22.5063C19.6352 22.4574 19.7668 22.4076 19.8994 22.3565C19.1743 22.7794 19.3089 22.7544 19.5767 22.6583C19.5891 22.6518 19.6039 22.6504 19.6158 22.6443C19.819 22.5693 20.0819 22.4553 20.0909 22.4649C20.1284 22.5051 18.9081 23.2331 19.0706 22.9645C19.0943 22.9283 19.6959 22.6633 19.3601 22.73C19.3031 22.7411 18.9508 22.9753 18.9274 22.9743C18.7601 22.9782 19.5036 22.4363 19.3507 22.3923C19.2105 22.5966 18.9341 22.6879 18.7289 22.8341C18.6346 22.901 18.6495 22.9865 18.6379 22.9948C18.4623 23.1165 18.5253 22.9833 18.4646 23.0193C18.4332 23.0386 18.1548 23.4001 18.1033 23.1402C16.9954 23.9505 17.8601 23.4878 18.59 23.0682C18.403 23.2774 17.9232 23.488 17.7297 23.6161C17.6602 23.6624 17.7437 23.7132 17.6275 23.7947C17.3879 23.9649 16.1285 24.5183 15.8042 24.6593C15.9839 24.5323 15.8849 24.4804 15.7387 24.5634C15.5925 24.6465 15.7742 24.6902 15.7512 24.717C15.726 24.7458 15.0003 25.0555 14.8917 25.1289C15.397 24.8188 15.2363 24.7987 14.7862 25.0196C14.8385 24.963 14.8909 24.9064 14.9433 24.8498C14.6985 25.0177 14.0875 25.174 13.9558 25.2882C13.9352 25.3062 14.0551 25.3313 14.0436 25.3414C13.9264 25.4382 13.4426 25.5977 13.4342 25.6315C13.4265 25.66 13.6465 25.6198 13.5902 25.6843C13.5784 25.6979 13.3474 25.6993 13.1779 25.8148C13.1152 25.8575 13.1887 25.9016 13.1738 25.914C13.0492 26.0172 13.0767 25.8653 12.8282 26.0149C12.6475 26.1239 12.5608 26.3031 12.2857 26.4001C13.2059 26.0989 12.4602 26.4099 12.1278 26.6336C12.0741 26.6697 12.1852 26.7608 11.8164 26.8793C12.4257 26.2951 11.5537 26.8725 11.365 26.9687C11.3544 26.9733 11.3103 26.898 11.2184 26.9444C11.2105 26.9486 11.2501 26.9944 11.1658 27.0436C10.3801 27.5048 10.8641 27.1752 10.684 27.2044C10.6076 27.2165 10.2588 27.4967 10.1579 27.5538C10.1341 27.5668 10.1157 27.5072 10.0249 27.559C9.86667 27.6496 9.75143 27.7869 9.65074 27.8484C9.63896 27.8553 9.59136 27.7708 9.40803 27.9087C9.35704 27.9472 9.31304 28.0112 9.40395 27.9921C9.70702 27.9264 10.1388 27.5118 10.489 27.429C10.8076 27.3527 9.93083 27.8309 9.89047 27.8555C9.87381 27.8649 10.0216 27.7296 9.84376 27.8159C9.69293 27.8893 9.51177 28.1799 9.28396 28.2676C9.26594 28.2746 9.03272 28.2451 9.03492 28.2344C9.03972 28.2244 9.2782 28.0534 9.22209 28.0383C9.21452 28.0371 9.05206 28.1306 9.01702 28.1158C8.97237 28.0986 8.71944 27.8243 8.68016 27.8366C8.58041 27.8685 8.67953 27.9068 8.62025 27.9347C8.60986 27.9397 8.59718 27.9452 8.58274 27.9512C8.39698 28.033 7.971 28.1886 8.01053 28.2995C8.09483 28.2589 8.17062 28.2231 8.25294 28.1836C7.83161 28.4454 8.04002 28.3855 7.99173 28.4412C7.93966 28.5013 7.90378 28.3939 7.75142 28.4709C7.72319 28.4849 7.12222 28.8619 7.15708 28.8951C7.45755 28.6348 7.40019 28.8266 7.41731 28.8195C7.48189 28.7922 7.51747 28.6825 7.59711 28.6379C8.15826 28.3241 7.66013 28.7555 7.80688 28.7059C7.85604 28.6894 7.91381 28.5796 7.93544 28.5709C8.00316 28.5439 8.04626 28.6182 8.08402 28.5881C8.17229 28.5177 7.99823 28.4787 8.00283 28.4687C8.05211 28.3517 8.43506 28.2371 8.29312 28.4736C8.44115 28.4421 8.38095 28.291 8.50952 28.2901C8.77044 28.2846 8.46101 28.4283 8.3877 28.4957C8.13717 28.7308 8.01971 28.7282 7.61901 28.9863C7.4716 29.0808 7.33745 29.2491 7.2683 29.2941C7.22654 29.3217 6.67685 29.3253 6.8731 29.7027C6.68847 29.7614 6.29121 29.6655 6.11053 29.7802C5.9444 29.8854 6.06965 29.9877 6.056 30.0019C6.02437 30.0276 5.84418 30.1215 5.55523 30.2735C5.33771 30.3861 5.1111 30.4982 4.81035 30.581C4.74491 30.6043 4.66275 30.6364 4.39737 30.6669C4.03829 30.7075 3.48046 30.6908 2.92163 30.4869C2.07951 30.2212 1.32408 29.387 1.13037 28.9368C0.899132 28.4646 0.897958 28.2808 0.862854 28.1204C0.86334 28.1029 0.862465 28.0858 0.858734 28.066C0.780533 27.6093 0.794977 27.476 0.777033 27.3692C0.764353 27.2704 0.74596 27.2357 0.723642 27.2186C0.679491 27.1856 0.622438 27.2306 0.609649 27.1425C0.563683 26.8513 0.709605 25.6729 0.711956 25.3475C0.710776 25.3338 0.708842 25.322 0.706115 25.3125C0.711066 25.3244 0.715972 25.3363 0.720829 25.3484C0.737486 25.436 0.754601 25.5221 0.771979 25.6097C0.825199 25.5232 0.821944 25.4313 0.822784 25.358C0.820451 25.3118 0.82285 25.2807 0.912613 25.2866C0.638754 25.2451 0.836784 25.0338 0.831243 24.9446C0.829216 24.9129 0.781916 24.9144 0.7809 24.873C0.777224 24.7206 0.816405 24.2838 0.792647 24.1723C0.690825 23.7046 0.516313 24.8999 0.499859 24.9172C0.510118 24.8156 0.449402 23.7376 0.314918 24.2287C0.294132 24.3046 0.417691 24.4339 0.422268 24.4748C0.452203 24.7417 0.342611 24.5319 0.33188 24.5526C0.314647 24.5889 0.420193 24.7576 0.406457 24.7961C0.401915 24.8071 0.30367 24.7284 0.296071 24.9363C0.203979 24.8677 0.286841 24.132 0.263769 24.0169C0.255874 23.978 0.045765 24.2171 0.251624 23.5283C0.232207 23.5364 0.212791 23.5444 0.193376 23.5524C0.187558 23.1663 0.183975 22.7772 0.182771 22.389C0.226626 22.4329 0.31264 22.651 0.298246 22.3765C0.290059 22.2188 0.188595 22.3334 0.18597 22.3187C0.172728 22.2449 0.188777 21.5177 0.216126 20.7812C0.239241 20.1569 0.258113 19.5101 0.257335 19.2927C0.257128 19.1382 0.185343 18.7021 0.184337 18.6685C0.180149 18.4711 0.242368 17.7696 0.232512 17.6285C0.226341 17.5412 0.142252 17.6231 0.147086 17.5452C0.151682 17.4727 0.231096 17.5488 0.23471 17.5273C0.267 17.3487 0.172619 15.9886 0.248218 15.6661C0.225473 15.863 0.379354 16.8491 0.435682 16.8299C0.44351 16.826 0.506537 16.5862 0.477061 16.537C0.547221 16.4559 0.337315 16.1741 0.379588 16.0221C0.384368 16.0049 0.502901 16.0733 0.525581 15.8013C0.533321 15.7075 0.441596 15.4618 0.545613 15.215C0.498602 14.857 0.642376 12.9786 0.511047 12.8527C0.504305 12.8488 0.463119 13.1128 0.408905 12.9353C0.336704 12.7 0.573589 12.9099 0.590512 12.6333C0.593557 12.5924 0.558206 11.8249 0.542787 11.8019C0.407186 11.5723 0.365432 12.242 0.349637 12.2319C0.311049 12.21 0.278274 11.655 0.286651 11.6327C0.295699 11.6109 0.478592 12.0595 0.402104 11.5185C0.382515 11.5805 0.362889 11.6429 0.343225 11.7056C0.297812 11.4519 0.417689 11.4248 0.423781 11.3628C0.442971 11.171 0.255179 10.969 0.472946 10.6566C0.530743 10.5747 0.601112 10.7061 0.609827 10.6959C0.688004 10.5977 0.468291 10.4779 0.625006 10.3289C0.634732 10.3194 0.710331 10.5489 0.725202 10.2879C0.728134 10.2338 0.728525 10.1593 0.725205 10.06C0.711125 10.1011 0.697029 10.1424 0.682915 10.184C0.646207 10.1023 0.603651 9.50068 0.608045 9.42117C0.622042 9.18402 0.741691 9.38561 0.718216 9.14933C0.573307 9.30595 0.520391 8.59357 0.652457 8.62624C0.483771 8.53634 0.577142 7.92131 0.561927 7.64018C0.552939 7.46086 0.45521 7.10424 0.459196 7.04923C0.464222 6.97995 0.577685 6.99103 0.592993 6.86698C0.597275 6.8297 0.486271 6.47231 0.571319 6.1448C0.587837 6.08192 0.764408 5.93365 0.823051 6.04391C0.923637 6.23143 0.80325 6.62046 0.914693 6.60646C1.03468 6.59045 0.918444 6.09053 0.919854 5.95579C0.927931 5.33049 1.09184 5.67371 1.12905 5.6532C1.21868 5.6023 1.17705 5.26475 1.1834 5.25081C1.21382 5.18828 1.31594 5.41659 1.37329 5.4148C1.44843 5.41014 1.5433 5.06872 1.57711 5.13937C1.62613 5.24069 1.54863 5.55641 1.55575 5.575C1.65483 5.81927 1.78981 5.45485 1.86283 5.35055C1.88548 5.31867 1.94121 5.42902 1.94608 5.40413C2.01926 5.02596 1.69643 5.35444 1.69129 5.11173C1.68586 4.89658 1.83275 5.15549 1.83796 5.14836C1.84361 5.13539 1.81743 4.87955 1.85167 4.8354C1.87054 4.80984 2.17132 5.45563 2.26507 5.41827C2.21922 5.20313 2.1713 4.98904 2.12106 4.77963C2.24706 4.74521 2.19277 5.06578 2.20955 5.09745C2.24403 5.15928 2.28655 4.96973 2.32798 4.9732C2.35419 4.97259 2.47256 5.17618 2.48656 4.97803C2.49116 4.90959 2.38457 4.78291 2.44207 4.53235C2.67172 5.35093 2.66624 4.76505 2.70835 4.73202C2.7503 4.70054 2.9107 5.09176 2.82643 4.6037C3.07223 4.5482 2.90673 4.60265 2.96909 4.73698C3.04491 4.90434 3.07777 4.49103 3.09309 5.13308C3.20673 5.0825 3.13362 4.57419 3.13794 4.54646C3.14323 4.52242 3.21593 4.62655 3.22985 4.5839C3.26747 4.4643 3.29216 4.39045 3.31063 4.34834C3.36953 4.20502 3.36037 4.37985 3.45432 4.25645C3.46558 4.24189 3.44967 3.77619 3.52318 4.12192C3.5373 4.18858 3.54838 4.25145 3.5576 4.31209C3.63213 4.81013 3.55627 5.04586 3.88419 5.10469C3.94205 4.81914 3.8618 4.51142 3.77699 4.27989C3.71601 4.11271 3.65477 3.98437 3.64399 3.92471C3.60465 3.70608 3.71155 3.92267 3.72745 3.89224C3.73276 3.88281 3.69728 3.69401 3.70238 3.69003C3.85256 3.58193 3.87173 3.91798 3.88036 4.26471C3.88642 4.48906 3.88584 4.7181 3.91917 4.83734C3.94945 4.75063 3.97899 4.66089 4.00819 4.5718C4.02503 4.68606 4.04073 4.79748 4.05611 4.91131C4.06957 4.36043 4.08558 4.88875 4.31913 4.99788C4.372 5.02382 4.24534 4.67344 4.42986 5.06707C4.42599 4.761 4.48235 4.85236 4.38587 4.58611C4.47547 4.58077 4.64967 5.18868 4.71795 5.42622C4.72108 4.55228 4.45918 5.08609 4.53054 4.31534C4.40306 4.19172 4.47384 4.54721 4.45139 4.51887C4.4033 4.46042 4.4111 4.33942 4.36038 4.19425C4.32903 4.10524 4.27563 4.00803 4.17282 3.91065C4.12881 3.86948 4.04563 4.08451 4.00631 3.79094C4.00235 3.75937 4.06952 3.5562 4.07673 3.55701C4.15682 3.57042 4.15752 3.76051 4.19026 3.76314C4.2215 3.76577 4.17089 3.56105 4.17889 3.55878C4.27309 3.53781 4.24261 3.72631 4.26831 3.69611C4.3248 3.63148 4.40829 2.84066 4.50415 3.83531C4.26869 3.03723 4.38527 3.74947 4.47213 4.05613C4.48629 4.10655 4.51502 4.12788 4.54386 4.16732C4.56061 4.18968 4.57736 4.21807 4.59094 4.2612C4.63811 4.40844 4.63381 4.58898 4.65405 4.66555C4.67567 4.74778 4.7522 4.25339 4.79617 4.94877C4.85209 4.73091 4.79481 4.4247 4.74435 4.13789C4.71121 3.94962 4.6835 3.77023 4.69992 3.62752C4.76841 2.99514 4.95282 3.80899 5.01662 4.09792C5.02641 4.14136 5.03405 4.17547 5.03875 4.19163C5.0486 4.22486 5.10906 4.09982 5.11702 4.12188C5.1321 4.15934 5.18519 4.84635 5.25456 4.90429C5.32635 4.96405 5.22209 4.65558 5.28548 4.62651C5.33065 4.60752 5.50287 5.41918 5.48351 4.97178C5.47212 4.69779 5.27234 4.24074 5.34488 4.04974C5.35483 4.02489 5.36984 4.00506 5.39096 3.99084C5.39405 4.00755 5.39717 4.02447 5.40031 4.0416C5.48065 4.48312 5.54756 4.91657 5.60767 5.34747C5.65593 5.09362 5.70173 4.83773 5.74388 4.57736C5.83117 5.09074 5.79147 5.53422 5.93934 6.00342C6.06903 4.82741 6.16358 6.36185 6.18952 6.37538C6.20761 6.37959 6.36145 5.90886 6.38936 5.83256C6.50325 6.23122 6.62433 7.45065 6.81078 6.71811C6.76697 6.85193 6.92053 7.15693 6.93015 7.15288C7.03333 7.10626 6.91533 6.42198 7.01785 6.52728C7.13755 6.64849 7.00207 6.84363 7.02747 7.04223C7.15466 8.06204 7.68613 7.7511 7.64888 8.78033C7.66748 8.75909 7.68608 8.73791 7.70467 8.71677C7.71252 9.16798 7.71691 9.61837 7.71847 10.067C7.72072 10.7253 7.71632 11.3782 7.70803 12.029C7.88312 12.4534 7.9963 13.5883 7.97902 14.1445C7.97605 14.2563 7.8892 14.8061 7.87364 14.8475C7.8442 14.9242 7.83245 14.5023 7.7773 14.693C7.76648 14.7337 7.72849 15.662 7.822 15.5959C7.83323 15.4918 7.78662 15.1661 7.80868 15.1127C7.96988 14.7384 7.8296 17.6021 7.88674 17.7443C7.91796 17.6812 7.94915 17.6184 7.98032 17.5553C7.96327 17.7352 7.94597 17.9172 7.92847 18.0971ZM0.350587 10.0066C0.253087 9.90589 0.314248 9.64668 0.281753 9.49754C0.236554 9.28783 -0.141307 8.95207 0.228151 9.0875C0.270529 9.39217 0.311289 9.69901 0.350587 10.0066ZM0.282667 14.5686C0.332702 14.3576 0.535855 14.5207 0.451822 14.6939C0.442253 14.7132 0.215136 14.854 0.282667 14.5686ZM0.361779 12.3614C0.364616 12.3703 0.361701 12.5518 0.358576 12.558C0.279388 12.7216 0.288595 12.1747 0.361779 12.3614ZM0.351196 23.153C0.344947 22.9099 0.158749 23.0822 0.233224 23.238C0.237949 23.2478 0.351456 23.1698 0.351196 23.153ZM0.357905 22.9784C0.524889 22.791 0.196533 22.4001 0.225606 22.7074C0.228532 22.7348 0.34969 22.9879 0.357905 22.9784ZM0.360383 13.8169C0.423789 13.8401 0.394374 14.0575 0.379581 14.1508C0.321857 14.1484 0.368014 13.9075 0.360383 13.8169ZM0.336533 19.3355C0.386404 19.3462 0.39813 18.5907 0.333081 18.5383C0.35921 18.6582 0.292326 19.3261 0.336533 19.3355ZM0.354065 21.2899C0.363086 21.2716 0.357959 20.9941 0.313881 21.0026C0.252367 21.1334 0.312702 21.3793 0.354065 21.2899ZM0.295023 25.1119C0.304806 25.1188 0.593495 25.0222 0.389132 25.2883C0.359068 25.3256 0.298042 25.1775 0.286641 25.191C0.265053 25.2194 0.254123 25.2415 0.250927 25.2599C0.238525 25.1379 0.23294 24.9894 0.250421 24.9723C0.333059 24.9048 0.291141 25.1124 0.295023 25.1119ZM0.996042 29.2005C1.15727 29.523 2.1206 30.4615 2.86105 30.6564C4.11211 31.0464 4.62879 30.8168 4.85397 30.8162C4.89157 30.8113 5.04429 30.7809 5.13499 30.7572C5.24436 30.7292 5.30493 30.7107 5.36372 30.6926C5.42064 30.6752 5.33483 30.7368 5.39891 30.746C5.45328 30.7604 5.72785 30.6859 5.88558 30.6023C6.09928 30.4883 5.78255 30.512 6.10123 30.3691C6.36012 30.2524 6.06975 30.5077 6.08257 30.5069C6.14654 30.4846 6.45881 30.2499 6.4777 30.3203C6.48955 30.3733 6.16601 30.5173 5.91123 30.6517C5.76658 30.7279 5.74288 30.7612 5.74858 30.7818C5.7438 30.795 5.74684 30.8049 5.67274 30.8422C5.63546 30.8605 5.58406 30.8846 5.46841 30.9261C5.40747 30.9476 5.3323 30.9731 5.21546 31.005C5.11417 31.0336 4.94519 31.0688 4.90204 31.0755C4.86949 31.081 4.83243 31.0869 4.7881 31.0931C4.48525 31.1342 4.33033 31.093 4.32756 31.0534C4.31425 31.0129 4.38728 30.9684 4.29411 30.9693C4.23564 30.9483 3.82215 31.0833 2.82177 30.7662C2.20441 30.6147 1.10946 29.7476 0.815862 29.0698C0.649001 28.7544 0.600011 28.5624 0.614027 28.5661C0.635833 28.5666 0.700154 28.7698 1.00261 29.2117C1.00042 29.208 0.998226 29.2042 0.996042 29.2005ZM0.25476 25.2941C0.250421 25.2842 0.248637 25.273 0.250927 25.2599C0.252066 25.2713 0.253503 25.2827 0.25476 25.2941ZM0.437225 10.6021C0.395625 10.7039 0.331842 10.4328 0.370643 10.2991C0.37348 10.289 0.37687 10.2796 0.380865 10.2711C0.390097 10.2704 0.398095 10.2807 0.404955 10.298C0.435455 10.3721 0.442948 10.5881 0.437225 10.6021ZM0.360201 25.5256C0.291774 25.8909 0.260139 25.6239 0.255924 25.3046C0.255531 25.3011 0.255143 25.2976 0.25476 25.2941C0.256432 25.298 0.258506 25.3016 0.260913 25.305C0.289352 25.3941 0.382454 25.4105 0.360201 25.5256ZM0.477061 16.537C0.465425 16.5504 0.447373 16.5589 0.41781 16.5597C0.450394 16.5244 0.467776 16.5213 0.477061 16.537ZM0.417621 17.2859C0.504888 17.544 0.506812 17.022 0.442228 17.0245C0.417927 17.026 0.414184 17.2758 0.417621 17.2859ZM0.339892 23.4681C0.348928 23.4427 0.61807 23.8295 0.418018 23.2706C0.383677 23.569 0.356467 23.2525 0.332667 23.2582C0.26387 23.2686 0.326567 23.7715 0.296914 23.8784C0.418993 23.9646 0.310135 23.5516 0.339887 23.4688C0.339889 23.4685 0.33989 23.4683 0.339892 23.4681ZM8.91959 28.8218C8.90065 28.9161 8.70527 29.0039 8.58447 29.0697C8.60189 28.9764 8.79902 28.8876 8.91959 28.8218ZM14.3112 4.58175C15.1345 5.03959 15.0775 5.34974 14.4199 4.7846C14.4074 4.77363 14.247 4.57517 14.3112 4.58175ZM21.0557 8.67871C21.0737 8.83153 20.8105 8.71814 20.6683 8.58372C20.6364 8.55362 20.5583 8.36662 20.7278 8.42747C20.6501 8.56107 20.869 8.74256 21.0557 8.67871ZM0.42376 25.7445C0.499319 25.8596 0.414261 26.2045 0.393663 26.4185C0.328065 26.2804 0.384052 25.8967 0.42376 25.7445ZM16.8145 6.35884C16.8925 6.41831 17.0064 6.35825 16.9969 6.34161C16.9552 6.26635 16.7533 6.2469 16.8145 6.35884ZM0.495561 24.9618C0.547413 24.9592 0.58368 25.2191 0.456348 25.2206C0.469749 25.1761 0.463977 24.972 0.495561 24.9618ZM8.67099 28.9234C8.60627 28.9314 8.85209 28.7338 8.94823 28.707C8.96707 28.7586 8.71637 28.9162 8.67099 28.9234ZM18.1659 7.13002C18.1707 7.13365 18.1762 7.13758 18.182 7.14173C18.2604 7.19693 18.4212 7.29003 18.461 7.26487C18.5089 7.23469 18.2887 7.11853 18.1929 7.12315C18.1821 7.12375 18.1729 7.12593 18.1659 7.13002ZM0.234621 5.07683C0.21101 5.08928 0.15387 4.64129 0.240297 4.44282C0.395841 4.08258 0.241055 5.08238 0.234621 5.07683ZM15.9992 5.91712C15.8211 5.67998 16.0269 5.9307 16.0758 5.83031C15.9204 5.72786 15.5313 5.47363 15.7423 5.73716C15.7835 5.78835 15.9295 5.86471 15.9992 5.91712ZM16.1957 6.08458C16.24 6.06999 16.4688 6.0796 16.3186 5.99513C16.2491 5.95622 16.0734 5.99442 16.1957 6.08458ZM1.34298 1.94759C1.45151 1.85904 1.34518 2.05808 1.22129 2.25952C0.839091 2.89162 0.667505 3.40648 0.643221 3.43335C0.624593 3.45893 0.610085 3.4748 0.599566 3.48308C0.601892 3.56618 0.505238 3.89753 0.421298 3.90996C0.452958 3.81872 0.534482 3.53916 0.555973 3.50653C0.564417 3.49317 0.571434 3.48344 0.577354 3.4771C0.567631 3.38836 0.74425 2.83796 1.14338 2.21218C1.23692 2.08018 1.32619 1.96123 1.34298 1.94759ZM7.16237 0.301654C6.9159 0.264905 6.80492 0.178081 6.78436 0.113085C6.74821 0.0491361 6.763 -0.00402044 6.78164 0.000234099C6.79886 0.00417268 6.81504 0.0080566 6.83023 0.0118766C7.21252 0.100983 6.89296 0.140275 6.89881 0.151853C6.92201 0.176364 7.27266 0.255292 7.16116 0.301046C7.16156 0.301248 7.16197 0.301451 7.16237 0.301654ZM1.63044 1.56146C1.61796 1.58525 1.45087 1.83921 1.4451 1.84215C1.35149 1.91603 1.40656 1.79538 1.48966 1.66914C1.5715 1.54446 1.69298 1.40082 1.63044 1.56146ZM6.90705 29.7182C7.07859 29.6477 6.96636 29.817 6.84633 29.8481C6.83492 29.851 6.75867 29.7784 6.90705 29.7182ZM16.324 6.13621C16.3483 6.17326 17.1713 6.7569 17.1913 6.60718C17.1102 6.57901 16.1745 5.9147 16.324 6.13621ZM22.8391 9.77534C22.6803 9.69667 22.9091 9.66476 22.9756 9.75054C23 9.78227 22.8788 9.79492 22.8391 9.77534ZM0.620167 24.5285C0.550334 24.3491 0.788097 24.3886 0.705519 24.5424C0.702281 24.5484 0.622887 24.5356 0.620167 24.5285ZM21.6013 9.0773C22.1816 9.28206 21.8676 9.58485 21.2224 9.10047C21.2527 9.09555 21.283 9.09058 21.3132 9.08556C20.53 8.61258 21.2702 9.03226 21.481 9.1131C21.5606 9.14383 21.5282 9.05073 21.601 9.0766C21.6011 9.07683 21.6012 9.07707 21.6013 9.0773ZM23.6883 10.1937C24.1073 10.716 23.1485 10.0486 22.8426 9.94051C23.1794 9.97091 23.5431 10.1661 23.0913 9.81158C23.8397 10.1465 23.4848 10.1031 23.5091 10.1257C23.5398 10.1525 23.6697 10.171 23.6883 10.1937ZM22.2746 9.50888C22.2402 9.50135 22.0358 9.33362 21.9501 9.30135C22.1088 9.2703 22.5039 9.55809 22.2746 9.50888ZM9.24516 1.45815C9.18436 1.51159 9.10426 1.52777 8.93109 1.3832C9.01167 1.38805 9.1489 1.43581 9.24516 1.45815ZM0.752557 9.7964C0.753123 9.65606 0.771221 9.37783 0.692949 9.46615C0.686434 9.474 0.706872 9.799 0.752557 9.7964ZM18.7788 7.68105C18.7978 7.70419 19.4568 8.08015 19.2699 7.87738C19.2125 7.81695 18.6102 7.488 18.7788 7.68105ZM15.4003 5.61471C15.4545 5.65042 15.6848 5.77978 15.6993 5.76711C15.7485 5.72316 15.4569 5.57883 15.4003 5.61471ZM0.80349 9.08824C0.811014 9.06964 0.776501 8.64538 0.740936 8.69428C0.674254 8.78476 0.778662 9.15239 0.80349 9.08824ZM7.38343 29.2324C7.41408 29.2112 7.50028 29.2588 7.51236 29.2529C7.53723 29.2401 8.11585 28.8649 7.94355 29.0909C7.91668 29.1282 7.03811 29.5907 6.91945 29.6457C6.81602 29.5716 7.24485 29.4515 7.32492 29.3911C7.33936 29.3801 7.30304 29.289 7.38341 29.2329C7.38342 29.2327 7.38342 29.2325 7.38343 29.2324ZM8.19336 0.897079C8.14295 0.946882 7.28322 0.509566 7.30395 0.428406C7.64514 0.596117 7.92249 0.747135 8.19336 0.897079ZM8.5691 1.14174C8.69977 1.28444 8.32285 1.07008 8.22079 0.982154C8.24488 0.938231 8.55194 1.12155 8.5691 1.14174ZM16.4941 6.62915C16.5693 6.65459 16.4237 6.43777 16.48 6.44807C16.5159 6.45508 16.6414 6.58021 16.7059 6.58044C16.7247 6.57949 16.6284 6.40116 16.5828 6.37797C16.5183 6.34477 16.536 6.44941 16.4685 6.40815C16.2447 6.27104 16.0773 6.09896 15.8678 5.9681C15.8488 5.95641 15.9651 6.0964 15.8045 5.99397C15.7796 5.97817 15.6752 5.81313 15.476 5.70074C14.9109 5.64728 14.7364 5.23195 14.1455 4.95769C14.1528 4.99182 14.5208 5.30966 14.5432 5.32684C14.9718 5.65661 15.7785 6.17745 16.2515 6.47202C16.3727 6.54786 16.3428 6.46454 16.3961 6.49538C16.4382 6.51979 16.3355 6.57565 16.4941 6.62915ZM0.811361 9.86849C0.91044 9.79876 0.837495 9.56579 0.836598 9.41722C0.747371 9.47333 0.82874 9.72294 0.811361 9.86849ZM11.605 3.22802C11.6732 3.26892 11.853 3.42607 11.8874 3.41234C11.9301 3.39291 11.6582 3.18061 11.605 3.22802ZM10.6182 27.4305C10.6229 27.4248 10.7848 27.3452 10.7927 27.3447C10.973 27.3412 10.4882 27.5794 10.6182 27.4305ZM14.5541 25.4193C14.6752 25.3431 14.7885 25.2492 14.8687 25.3005C14.7822 25.3309 14.5653 25.478 14.5541 25.4193ZM20.1384 22.4068C20.0694 22.3442 20.3545 22.2128 20.4967 22.149C20.5256 22.1362 20.5486 22.1263 20.5616 22.1204C20.5614 22.1329 20.5446 22.1559 20.5178 22.1838C20.4189 22.2853 20.1838 22.4505 20.1384 22.4068ZM9.089 1.76005C8.86195 1.60673 8.82273 1.77569 8.71525 1.61983C8.69883 1.59478 8.80095 1.25642 8.98969 1.52762C9.02298 1.57618 8.80092 1.52967 9.089 1.76005ZM21.1089 9.03828C21.0197 9.07261 20.8526 8.96228 20.7372 8.89551C20.7876 8.8622 21.022 8.99937 21.1089 9.03828ZM0.846947 8.31703C0.941656 8.19382 0.834401 7.66135 0.776041 7.79831C0.768763 7.81572 0.847028 8.24194 0.846947 8.31703ZM0.701305 26.5957C0.772312 26.9278 0.813969 26.2469 0.75208 26.0791C0.750705 26.1554 0.695179 26.5651 0.701305 26.5957ZM18.7535 23.1311C18.7624 23.1226 18.9904 23.0041 19.0021 23.0019C19.2265 22.9714 18.5807 23.3074 18.7535 23.1311ZM13.1856 25.9733C13.2343 25.875 13.7772 25.6562 13.9239 25.6545C13.8545 25.7972 13.1246 26.096 13.1856 25.9733ZM10.0448 2.32943C9.99632 2.29856 9.95037 2.26687 9.90653 2.23461C9.79889 2.15576 9.70351 2.07416 9.61024 1.9895C9.64869 1.97325 9.81331 2.09375 9.9304 2.19846C9.99621 2.25795 10.0469 2.31265 10.0448 2.32943ZM19.5767 22.6583C19.5891 22.6518 19.6039 22.6504 19.6158 22.6443C19.6026 22.6492 19.5895 22.6537 19.5767 22.6583ZM13.4786 4.66464C13.595 4.7673 13.6238 4.66575 13.6176 4.65794C13.5387 4.56703 13.3473 4.54868 13.4786 4.66464ZM0.954379 9.69159C1.04321 9.63489 0.962921 9.3848 0.978217 9.23906C0.908436 9.28365 0.940531 9.57342 0.954379 9.69159ZM24.1961 10.6423C24.3304 10.8154 23.5622 10.576 23.4436 10.4485C23.4584 10.3884 24.1725 10.6162 24.1961 10.6423ZM0.889192 25.7137C0.960994 25.7013 0.908723 25.3239 0.868259 25.3994C0.842177 25.4448 0.843919 25.7211 0.889192 25.7137ZM23.1077 10.2409C23.0336 10.2293 22.9092 10.091 22.9824 10.0789C23.0765 10.0636 23.1272 10.2435 23.1077 10.2409ZM17.4002 7.25628C17.4221 7.28249 17.8201 7.43427 17.7082 7.28326C17.6309 7.17857 17.5616 7.25692 17.5371 7.24265C17.5094 7.22634 16.9951 6.76909 17.4002 7.25628ZM26.4392 18.2569C26.5787 18.1222 26.7923 18.0036 26.9796 17.8522C26.9232 17.9564 26.5359 18.2612 26.4392 18.2569ZM0.929449 27.7855C0.820606 27.1945 0.938237 25.8519 0.812316 26.675C0.810066 26.7041 0.79058 26.9196 0.807645 27.2238C0.813113 27.5001 0.936084 28.0508 0.929449 27.7855ZM9.089 1.76005C9.11728 1.7792 9.14942 1.80395 9.1847 1.83511C9.14739 1.80771 9.11595 1.78171 9.089 1.76005ZM11.5943 3.43299C11.5156 3.44263 11.7585 3.62188 11.8471 3.64797C11.9059 3.61112 11.6043 3.43095 11.5943 3.43299ZM26.9492 17.7841C27.0397 17.6734 27.2632 17.535 27.4796 17.3185C27.4434 17.4316 27.0132 17.8011 26.9492 17.7841ZM20.7171 21.7665C20.9065 21.6852 21.1065 21.5482 21.0808 21.4949C21.0892 21.5006 21.1026 21.5039 21.1216 21.5038C21.1414 21.5032 21.3073 21.3701 21.3998 21.3373C21.9373 21.1512 19.5944 22.5151 20.8518 21.558C20.8078 21.627 20.7629 21.6965 20.7171 21.7665ZM12.4238 26.2082C12.2918 26.1954 12.0546 26.4187 12.1398 26.4066C12.1997 26.3973 12.5559 26.2214 12.4238 26.2082ZM16.2806 24.1747C16.2441 24.1795 15.99 24.3688 16.0002 24.406C16.1779 24.3584 16.4468 24.1548 16.2806 24.1747ZM11.6234 26.5267C11.5565 26.5492 11.5315 26.6925 11.541 26.6932C11.6225 26.6984 11.7571 26.5299 11.6234 26.5267ZM9.39021 2.32695C9.43826 2.38449 9.5993 2.45539 9.73613 2.49271C9.80408 2.5103 9.86603 2.5192 9.90166 2.51169C9.90476 2.53146 9.92744 2.56956 9.97049 2.62585C9.97032 2.62574 9.97015 2.62562 9.96998 2.62551C10.0404 2.70679 12.2742 4.24402 10.8435 3.10891C10.7991 3.07357 10.8253 3.17354 10.638 3.03374C10.6258 3.0245 10.6505 2.97369 10.6129 2.94528C10.5243 2.87875 10.0553 2.5239 9.92996 2.49529C9.93484 2.48608 9.9338 2.47355 9.92506 2.4569C9.90716 2.42288 9.86669 2.39416 9.81622 2.3714C9.64097 2.29107 9.34679 2.27502 9.39021 2.32695ZM16.8272 23.8757C16.7616 23.8869 16.5934 23.9979 16.5979 24.0513C16.6975 24.0263 16.9796 23.8498 16.8272 23.8757ZM1.10897 27.6312C1.07971 27.1723 1.02411 26.7315 0.980177 26.8745C0.968324 26.9218 0.974697 27.12 1.01187 27.3616C1.04664 27.5993 1.13151 27.8967 1.10897 27.6312ZM15.0688 24.8219C15.7462 24.5379 15.2219 24.7376 15.2883 24.6218C15.2151 24.6886 15.142 24.7553 15.0688 24.8219ZM5.61916 0.133549C5.84822 0.195449 5.80636 0.228878 5.6721 0.223873C5.53489 0.223443 5.23081 0.158352 4.73897 0.139019C4.58731 0.137243 4.74906 0.0954927 4.98841 0.0835012C5.22972 0.0708001 5.48771 0.0992741 5.61916 0.133549ZM0.462262 7.54739C0.586359 7.41706 0.522286 8.05213 0.430643 7.80664C0.426831 7.79496 0.456846 7.55618 0.462262 7.54739ZM1.62989 2.61918C1.63289 2.58327 1.63755 2.54996 1.64492 2.51699C1.63389 2.43956 1.66228 2.38529 1.77496 2.2334C1.62988 2.51725 1.82698 2.32863 1.68092 2.53886C1.66514 2.56338 1.64811 2.5901 1.62989 2.61918ZM21.0741 21.4881C21.077 21.4904 21.0793 21.492 21.0808 21.4949C21.0779 21.4929 21.0758 21.4907 21.0741 21.4881ZM11.0402 26.8558C10.9265 26.8327 10.7108 26.9523 10.8101 26.9832C10.8192 26.9861 11.0324 26.9208 11.0402 26.8558ZM9.90166 2.51169C9.89854 2.49392 9.90847 2.49034 9.92996 2.49529C9.92538 2.50397 9.91582 2.5087 9.90166 2.51169ZM12.2076 26.1832C12.224 26.236 12.5754 26.0793 12.5868 26.0663C12.7399 25.8814 12.3457 26.1083 12.2076 26.1832ZM1.24874 24.6302C1.24324 24.6124 1.10129 24.728 1.15516 24.7953C1.19703 24.8483 1.26985 24.7011 1.24874 24.6302ZM1.12796 3.875C1.0722 4.04896 1.01146 4.27408 0.936398 4.29766C0.971565 4.19706 1.07998 3.85911 1.12796 3.875ZM0.55654 7.30123C0.480159 7.11044 0.502191 6.68162 0.540914 6.41914C0.640726 6.42084 0.530019 7.11969 0.55654 7.30123ZM9.12245 2.10656C9.13023 2.11641 9.379 2.3153 9.38134 2.23423C9.38212 2.1132 9.06759 2.02606 9.12245 2.10656ZM1.16166 25.1175C1.20429 25.2194 1.3626 24.9985 1.25134 24.8693C1.19527 24.8098 1.15544 25.1069 1.16166 25.1175ZM10.3112 27.1326C10.1746 27.2508 10.5928 27.1089 10.6133 27.0164C10.5379 27.0497 10.3613 27.0897 10.3112 27.1326ZM15.7349 24.2473C15.1254 24.3284 15.5803 24.5216 15.656 24.4446C15.6666 24.4337 15.7497 24.2452 15.7349 24.2473ZM1.17554 6.93861C1.14082 6.86441 1.05759 7.15729 1.12917 7.19043C1.17411 7.21026 1.19794 6.9869 1.17554 6.93861ZM23.4447 19.9588C23.4242 19.9725 23.4037 19.9861 23.3832 19.9997C23.397 19.987 23.4169 19.9733 23.4447 19.9588ZM8.79949 27.6439C9.27232 27.7142 9.12696 27.5367 9.15615 27.5214C9.21923 27.4897 9.40589 27.4773 9.51712 27.4013C9.39887 27.5041 9.27567 27.6104 9.16121 27.7128C9.27047 27.6725 10.2668 27.2543 10.2653 27.203C10.2611 27.1279 9.97334 27.3065 9.96083 27.3067C9.94418 27.3059 9.80736 27.1646 9.77632 27.1733C9.72463 27.1863 8.93972 27.615 8.79949 27.6439ZM14.6775 24.8306C14.7701 24.8083 14.8279 24.8629 14.8579 24.8273C14.8682 24.8151 14.8375 24.7504 14.8736 24.711C14.8082 24.7509 14.7428 24.7908 14.6775 24.8306ZM8.33366 28.2223C8.22134 28.2078 8.48214 28.0624 8.61085 27.9991C8.63973 27.9853 8.66044 27.9768 8.66409 27.977C8.70009 27.9812 8.68353 28.0156 8.64419 28.0559C8.56115 28.1343 8.41033 28.2297 8.33366 28.2223ZM12.008 26.2147C11.9888 26.2187 11.6328 26.372 11.6574 26.4139C11.7667 26.3988 12.2308 26.1716 12.008 26.2147ZM14.9263 24.6784C15.0535 24.6222 15.3203 24.5655 15.2441 24.4836C15.2439 24.4837 15.2437 24.4838 15.2435 24.4839C15.1377 24.5488 15.032 24.6137 14.9263 24.6784ZM1.36147 25.4908C1.38445 25.4605 1.40169 25.4347 1.41405 25.4136C1.47189 25.3475 1.41132 25.3556 1.34613 25.4072C1.3114 25.4507 1.27525 25.5086 1.25227 25.582C1.32244 25.6638 1.32951 25.5327 1.36147 25.4908ZM1.52612 24.8563C1.56019 24.8103 1.52954 24.1055 1.43807 24.2091C1.40582 24.2518 1.48528 24.6551 1.47832 24.6686C1.46864 24.6945 1.36992 24.5742 1.38701 24.7743C1.4213 24.7635 1.51543 24.8772 1.52612 24.8563ZM1.48677 25.3226C1.63016 25.1487 1.39061 25.0912 1.38226 25.2296C1.37851 25.2823 1.46597 25.3466 1.48677 25.3226ZM1.3838 26.4424C1.41097 26.325 1.46105 26.0452 1.39643 25.8515C1.37024 26.1034 1.34601 26.3602 1.33221 26.6633C1.37673 26.6988 1.3592 26.5403 1.38383 26.4416C1.38382 26.4419 1.38381 26.4421 1.3838 26.4424ZM1.32367 9.25771C1.35388 9.04616 1.46314 9.49144 1.44651 9.49956C1.40046 9.55841 1.31146 9.35669 1.32367 9.25771ZM3.21054 5.22225C3.23116 5.16317 3.31624 5.11833 3.25508 5.00251C3.2043 5.13319 3.15223 5.25932 3.09991 5.38896C3.26066 5.46642 3.18756 5.2844 3.21054 5.22225ZM3.70297 4.68888C3.70878 4.70601 3.92769 4.57987 3.80208 4.82554C3.7432 4.93937 3.62904 4.58735 3.58404 4.30821C3.56393 4.18171 3.55916 4.06773 3.58396 4.01711C3.61465 4.0835 3.63223 4.18899 3.64598 4.29912C3.66451 4.44703 3.67467 4.60407 3.70297 4.68888ZM4.47195 3.06162C4.48986 3.05089 4.57458 3.38036 4.56666 3.41781C4.53086 3.62656 4.38767 3.14181 4.47195 3.06162ZM4.59399 4.10241C4.60602 4.02324 4.63229 4.06967 4.6537 4.1512C4.67351 4.22626 4.68862 4.33237 4.68266 4.38139C4.65178 4.39383 4.61635 4.24434 4.60101 4.15893C4.59584 4.12982 4.59319 4.10846 4.59399 4.10241ZM4.56621 6.93577C4.73458 6.8099 4.40737 6.65176 4.45666 6.87682C4.459 6.88764 4.55801 6.94126 4.56621 6.93577ZM4.76044 3.35019C4.74078 3.51028 4.65721 3.1774 4.66169 3.06192C4.70354 3.04645 4.76393 3.32739 4.76044 3.35019ZM4.94972 6.86919C5.07923 6.70087 4.69367 6.72597 4.67585 6.74814C4.60429 6.83976 4.73243 7.17438 4.76885 7.23814C4.73703 6.75848 4.89113 6.94858 4.94972 6.86919ZM4.85711 6.03185C4.85205 5.84397 4.68625 6.28972 4.77619 6.40137C4.78718 6.30789 4.85855 6.08399 4.85711 6.03185ZM5.21646 5.08977C5.25389 5.01559 5.35183 4.86538 5.30621 4.82691C5.29528 4.86724 5.16771 5.03532 5.21646 5.08977ZM5.4371 5.01081C5.54428 4.9654 5.3348 4.85091 5.36078 4.97158C5.36174 4.97651 5.43163 5.01225 5.4371 5.01081ZM5.82695 4.50161C5.95967 4.46649 5.82042 4.25479 5.73314 4.38303C5.70711 4.42242 5.81207 4.50512 5.82695 4.50161ZM5.3694 6.80408C5.43397 6.66513 5.30349 6.44985 5.23255 6.75804C5.22617 6.64382 5.22007 6.53076 5.21442 6.41924C5.09148 6.71132 5.19518 6.79236 5.23956 6.8623L5.25549 6.74346C5.2714 6.76247 5.28133 6.7809 5.27667 6.80536C5.25007 6.9463 5.06348 6.92023 5.00662 6.88589C5.10858 7.01792 5.08546 7.50803 5.12194 7.78169C5.15949 7.53697 5.25568 7.14586 5.30962 6.90149C5.32063 6.84989 5.29899 6.79664 5.29203 6.74721L5.27579 6.8683C5.27487 6.84796 5.27566 6.82853 5.28021 6.81049C5.30843 6.7 5.36531 6.81191 5.36931 6.80465C5.36934 6.80446 5.36937 6.80427 5.3694 6.80408ZM4.56749 4.67614C4.65106 4.82557 4.62077 4.56242 4.59143 4.59654C4.58986 4.59938 4.56557 4.67265 4.56749 4.67614ZM5.36504 2.73863C5.36831 3.28376 5.18355 2.95083 5.5196 3.8497C5.32531 3.4858 5.41853 3.8439 5.35215 3.77682C5.2997 3.72324 5.3007 3.4909 5.23349 3.63654C5.29512 3.42595 5.18593 2.78839 5.08067 2.41764C5.08112 2.419 5.08156 2.42036 5.082 2.42171C5.05912 2.31815 5.36518 2.56097 5.36504 2.73863ZM5.79052 5.28231C6.07359 5.32296 5.66638 5.13584 5.91164 5.15425C5.77431 5.05008 5.75359 5.08347 5.71242 5.21841C5.67252 5.34774 5.62796 5.56877 5.47757 5.5837C5.60494 5.1726 5.50122 5.29339 5.43376 5.4515C5.36662 5.61979 5.34356 5.84409 5.6258 5.58707C5.35295 6.06286 5.63773 5.76587 5.67215 5.85629C5.70897 5.95216 5.58422 6.25698 5.69042 6.26198C5.69046 6.2618 5.69049 6.26162 5.69052 6.26144C5.721 6.06321 5.75337 5.87384 5.78767 5.7027C5.52679 5.82085 5.6805 5.4711 5.88611 5.43634C5.85393 5.38378 5.8222 5.33198 5.79052 5.28231ZM5.34915 6.20599C5.3571 6.18344 5.41353 5.7562 5.36438 5.77597C5.32198 5.8163 5.23609 6.44409 5.34915 6.20599ZM5.26547 7.8983C5.25779 7.76152 5.29941 7.55183 5.21568 7.47531C5.21289 7.61364 5.1757 7.82841 5.26547 7.8983ZM6.91806 6.28692C7.14196 6.34995 6.58333 5.95997 6.70289 6.13694C6.70904 6.14548 6.9066 6.2832 6.91806 6.28692ZM5.82816 5.07241C5.9127 5.09657 5.67679 4.95662 5.71904 5.0309C5.72185 5.03468 5.82416 5.07155 5.82816 5.07241ZM5.47351 3.14633C5.54516 3.15872 5.59931 3.81074 5.61495 3.91998C5.54559 3.86757 5.39798 3.1481 5.47351 3.14633ZM5.53228 8.11642C5.74626 7.83887 5.46792 7.50631 5.47564 7.45982C5.48235 7.42068 5.58679 7.48339 5.58975 7.47434C5.59269 7.4563 5.60215 7.0365 5.5995 7.01293C5.59496 6.9972 5.4415 7.0658 5.40188 6.9715C5.45936 7.16184 5.41098 7.92156 5.44037 7.96047C5.45608 7.98977 5.59331 7.75122 5.53224 8.11596C5.53225 8.11612 5.53226 8.11627 5.53228 8.11642ZM5.50979 7.36142C5.44468 7.46577 5.44565 7.16795 5.47493 7.09481C5.53566 6.9365 5.51468 7.34981 5.50979 7.36142ZM5.61476 6.7528C5.63523 6.71172 5.71197 6.3523 5.65017 6.31172C5.53034 6.46045 5.56684 6.841 5.61476 6.7528ZM4.4841 5.15358C4.48807 5.15472 4.49249 5.15636 4.49738 5.15848C4.59048 5.19811 4.69549 5.29907 4.73808 5.25819C4.67453 5.23296 4.58065 5.14603 4.50512 5.14141C4.49599 5.14223 4.48901 5.14612 4.4841 5.15358ZM6.29811 5.32152C6.32944 5.13151 6.39356 5.55602 6.38043 5.68206C6.34137 5.69299 6.29567 5.33662 6.29811 5.32152ZM6.3411 5.33591C6.34313 5.33883 6.34326 5.34225 6.32972 5.36415C6.41125 5.22917 6.54663 4.98831 6.63995 4.82162C6.68369 4.74181 6.72439 4.67607 6.69143 4.71092C6.67134 4.73039 6.63785 4.77573 6.51164 4.89385C6.37066 4.99761 6.18777 5.26654 5.38127 5.48358C5.27446 5.50627 5.15783 5.51981 5.086 5.52373C5.15666 5.51395 5.27224 5.49475 5.37736 5.46671C6.18346 5.24231 6.35648 4.96958 6.4904 4.86439C6.60965 4.74415 6.63628 4.69815 6.65053 4.67762C6.67158 4.64103 6.62132 4.70539 6.57021 4.78375C6.46232 4.94736 6.32117 5.1852 6.24814 5.31458C6.2598 5.29945 6.26336 5.29845 6.26725 5.29902C6.27387 5.30078 6.33889 5.33392 6.3411 5.33591ZM6.00713 6.9517C6.08826 7.04439 5.97866 7.09037 5.97655 7.10138C5.95498 7.20569 5.96875 7.41609 5.88477 7.36771C5.92054 7.19294 5.84667 6.76382 6.00713 6.9517ZM4.37657 5.54617C4.50468 5.58672 4.46399 5.52568 4.35929 5.46314C4.28887 5.41935 4.28893 5.42549 4.27565 5.4647C4.26939 5.46669 4.28723 5.4931 4.33246 5.52233C4.35518 5.53569 4.36897 5.54367 4.37657 5.54617ZM6.36475 5.34672C6.40023 5.35711 6.36861 5.41933 6.29947 5.64205C6.23341 5.85144 6.15625 6.15191 6.14004 6.23451C6.04006 6.05993 6.16338 5.96077 6.19848 5.78861C6.2079 5.74246 6.15147 5.74146 6.15261 5.73649C6.16986 5.65896 6.21672 5.73193 6.22968 5.68627C6.23331 5.67223 6.25789 5.50849 6.28338 5.41852C6.31101 5.32182 6.32143 5.32166 6.36475 5.34672ZM6.06439 7.00537C6.10479 7.06731 6.10926 7.61179 6.10181 7.62941C5.99741 7.79625 6.032 7.05685 6.06439 7.00537ZM6.46977 5.39964C6.63244 5.40462 6.45206 5.59097 6.43288 5.42197C6.43146 5.40521 6.50874 5.39632 6.46977 5.39964ZM4.28603 5.66584C4.31252 5.68059 4.50601 5.81202 4.54867 5.78115C4.51389 5.74626 4.36948 5.65829 4.28211 5.6334C4.26203 5.629 4.25545 5.63415 4.27252 5.65457C4.27656 5.65804 4.2811 5.66181 4.28603 5.66584ZM4.14966 5.78665C4.15739 5.78859 4.16332 5.68891 4.19898 5.71681C4.20257 5.71915 4.18962 5.75565 4.21123 5.78977C4.24203 5.81983 4.27131 5.84118 4.32488 5.85021C4.35207 5.85452 4.4269 5.81402 4.42595 5.80866C4.40033 5.73884 4.35965 5.7117 4.25969 5.68286C4.17338 5.66229 4.16478 5.71187 4.2309 5.76948C4.31877 5.83217 4.17259 5.81754 4.14966 5.78665ZM6.14922 7.02265C6.19629 6.996 6.32272 7.07908 6.25157 7.13862C6.22092 7.16451 6.14408 7.10809 6.14922 7.02265ZM5.19205 6.22255C4.95005 6.16766 5.57165 6.57023 5.61917 6.57817C5.62447 6.52116 5.21533 6.22646 5.19205 6.22255ZM6.9591 5.6926C6.95908 5.69238 6.95906 5.69216 6.95904 5.69195C6.96211 5.92708 6.88213 5.78813 6.8811 5.79979C6.82622 6.29999 6.96522 6.15717 6.98971 6.23229C7.04168 6.39549 6.85573 6.38201 6.95285 6.65267C6.80534 6.20352 6.88459 6.61855 6.81977 6.63443C6.5571 6.70859 6.89799 6.01567 6.81995 5.79043C6.80939 5.75886 6.74507 6.00227 6.71357 5.92241C6.6131 5.66702 6.94153 4.78923 6.9591 5.6926ZM6.26028 7.18891C6.32899 7.26739 6.25299 7.76924 6.18837 7.63724C6.17178 7.62062 6.14796 7.08111 6.26028 7.18891ZM18.0583 16.3944C18.1794 16.2409 17.7732 16.3942 17.736 16.4787C17.7165 16.5215 18.0045 16.4621 18.0583 16.3944ZM15.4417 17.586C15.266 17.6988 15.2049 18.0558 15.4152 17.8904C15.4376 17.8727 15.482 17.6089 15.4417 17.586ZM20.5875 15.9038C20.7543 16.0966 20.8241 15.9208 20.6671 15.8484C20.6128 15.8233 20.5823 15.8977 20.5875 15.9038ZM20.2227 14.9188C20.1985 14.9263 19.9889 15.0715 20.018 15.1044C20.1151 15.0746 20.369 14.8804 20.2227 14.9188ZM20.5091 15.8959C20.6489 15.9254 20.4927 15.6989 20.2816 15.7449C20.3648 15.773 20.4943 15.8926 20.5091 15.8959ZM6.96809 5.38465C6.95605 5.25368 7.13946 5.00422 7.12735 5.00309C7.17002 5.03009 7.17781 5.03802 7.12569 5.1236C7.07768 5.20286 6.99268 5.32665 6.96809 5.38465ZM16.2676 17.2541C16.133 17.4123 16.5265 17.2543 16.4461 17.1923C16.4392 17.1905 16.2731 17.2475 16.2676 17.2541ZM13.7866 12.288C13.9516 12.3186 13.5684 11.9903 13.6305 12.1515C13.6339 12.1587 13.7775 12.2864 13.7866 12.288ZM11.9719 11.1137C12.0598 11.1941 12.4872 11.4577 12.3534 11.3037C12.3325 11.28 12.0087 11.0723 11.9719 11.1137ZM7.06285 6.24006C7.16051 6.16606 7.16626 6.54904 7.15185 6.60286C7.1461 6.62459 6.93644 6.33802 7.06285 6.24006ZM21.9207 16.5593C21.958 16.5722 22.0183 16.6014 22.076 16.629C22.1951 16.6861 22.3234 16.7452 22.3696 16.7291C22.3032 16.7031 22.1956 16.6343 22.0988 16.582C22.0093 16.533 21.9267 16.5007 21.9207 16.5593ZM17.0297 16.8093C16.8278 16.7996 16.5894 16.9516 16.7234 17.0429C16.9917 16.8739 16.6233 16.9502 17.0297 16.8093ZM19.7501 15.6616C19.8355 15.7129 19.9639 15.6191 19.957 15.6083C19.8898 15.5055 19.6866 15.5695 19.7501 15.6616ZM22.1389 13.6092C22.1 13.5633 21.8818 13.7437 21.9351 13.7543C21.9525 13.7584 22.1689 13.6478 22.1389 13.6092ZM5.6695 6.99678C5.75025 7.11373 5.38318 6.94186 5.31971 6.82667C5.32123 6.7181 5.65725 6.98089 5.6695 6.99678ZM17.3218 14.3866C17.2675 14.4592 17.7314 14.6464 17.5918 14.4895C17.5577 14.4508 17.3407 14.363 17.3218 14.3866ZM13.1244 12.0951C13.4602 12.1795 12.3245 11.3815 12.563 11.6866C12.5793 11.7086 13.0946 12.0878 13.1244 12.0951ZM11.2547 10.8315C11.2956 10.8719 11.1095 11.1086 10.976 10.8843C10.9584 10.8551 11.1219 10.8666 11.1107 10.8378C11.1036 10.8211 10.7017 10.5096 10.6788 10.5028C10.6536 10.4958 10.6257 10.5923 10.5986 10.5875C10.5678 10.5818 10.3539 10.3412 10.2179 10.2507C9.96333 10.0814 9.89098 10.1293 9.87006 10.1158C9.80877 10.076 9.73755 9.96104 9.61389 9.8793C8.99012 9.46785 8.01204 8.89438 7.62345 8.4301C8.01493 8.77415 8.46905 8.99149 8.91422 9.26152C8.69441 9.31575 9.62454 9.57979 9.06956 9.44184C9.29524 9.54505 11.1151 10.7019 11.2542 10.8312C11.2544 10.8313 11.2545 10.8314 11.2547 10.8315ZM14.6717 17.91C14.7381 17.7584 14.1607 18.0943 14.165 18.2255C14.2515 18.1985 14.6638 17.9278 14.6717 17.91ZM17.1627 16.2067C17.2069 16.1593 17.1568 15.956 17.4919 15.8712C17.4922 15.871 17.4924 15.8709 17.4927 15.8707C17.5899 15.8463 17.5219 15.9447 17.5459 15.9504C17.5537 15.954 17.8688 15.8788 17.659 16.0251C17.3454 16.2442 17.5516 15.9162 17.3756 16.0206C17.3525 16.0345 17.0792 16.3266 17.1096 16.3359C17.1132 16.337 17.2016 16.2567 17.2229 16.2554C17.3038 16.2497 17.3061 16.3214 17.3164 16.3186C17.3478 16.3086 17.821 15.8969 17.942 15.9318C17.985 15.9411 17.1598 16.5228 17.1151 16.5312C17.1082 16.5324 17.0979 16.5233 17.0857 16.509C17.0512 16.4668 17.0005 16.3814 16.9792 16.3794C16.9671 16.3774 16.6774 16.6258 16.6279 16.6358C16.6134 16.639 16.6016 16.6402 16.5926 16.6407C16.6701 16.6577 16.3697 16.8286 16.3493 16.7701C16.3418 16.7472 16.5545 16.6392 16.5631 16.6388C16.5672 16.6385 16.5712 16.6389 16.5746 16.6389C16.5225 16.6173 16.8354 16.4184 16.9599 16.3009C17.0251 16.243 17.0506 16.2036 16.9858 16.2077C17.1717 16.0329 17.0299 16.3477 17.1627 16.2067ZM18.1229 15.4978C18.1103 15.5268 18.0975 15.556 18.0859 15.5844C18.4296 15.3224 18.9051 15.1337 19.3215 14.875C19.4296 14.808 19.2475 14.7897 19.4033 14.7289C19.5253 14.6819 19.7064 14.6909 19.6573 14.7486C19.6452 14.763 19.3826 14.8469 19.2721 14.9234C18.9441 15.1503 19.0817 15.1774 19.0627 15.1922C19.0413 15.2086 18.7956 15.281 18.6775 15.3569C18.3896 15.5426 18.2853 15.6753 17.8419 15.8556C18.0418 15.66 17.8444 15.62 18.1229 15.4978ZM15.3381 13.6049C15.2925 13.6484 15.0561 13.4515 14.9556 13.4033C15.0014 13.3602 15.2369 13.5577 15.3381 13.6049ZM7.74686 19.5113C7.65028 19.4195 7.6105 20.0935 7.69671 19.9177C7.71595 19.8782 7.74441 19.5967 7.74686 19.5113ZM7.61159 22.4642C7.63727 22.5504 7.71484 22.2073 7.63851 22.2085C7.61396 22.2064 7.60812 22.4556 7.61159 22.4642ZM22.6402 12.6963C22.651 12.6849 22.7893 12.6065 22.7915 12.6106C22.9508 12.6224 22.4681 12.9103 22.6402 12.6963ZM7.62842 26.3041C7.58191 26.0544 7.50196 26.7786 7.59964 26.5646C7.60346 26.5582 7.62993 26.3187 7.62842 26.3041ZM7.55306 26.4247C7.58834 26.5712 7.62122 26.7906 7.62495 26.8244C7.63142 26.874 7.63042 26.8492 7.61565 26.8512C7.59097 26.848 7.57236 26.8789 7.56523 26.8226C7.5631 26.7879 7.53594 26.5168 7.55306 26.4247ZM19.5267 15.9675C19.5116 16.0843 19.144 15.8095 18.9984 15.7523C19.0146 15.6362 19.38 15.9116 19.5267 15.9675ZM21.9697 17.2344C21.9173 17.2121 21.8656 17.1898 21.8149 17.1675C20.4487 16.5816 20.7778 16.529 21.8478 17.0995C21.9284 17.1425 22.0088 17.1865 22.0947 17.2346C22.0654 17.2997 22.0808 17.2819 21.9697 17.2344ZM19.8644 16.209C19.9568 16.1746 20.1397 16.2867 20.267 16.3543C20.2214 16.3875 19.963 16.2428 19.8644 16.209ZM7.91502 18.7116C8.00326 18.8299 7.88236 19.3446 7.84694 19.2521C7.83957 19.2299 7.86641 18.6673 7.91502 18.7116ZM22.6648 12.5582C22.6204 12.524 22.6796 12.4586 22.7196 12.4263C22.7673 12.3873 22.7436 12.4291 22.7319 12.4578C22.7067 12.5493 22.8255 12.4413 22.7923 12.4659C22.7708 12.4783 22.6677 12.5413 22.6648 12.5582ZM17.0693 14.8226C16.9403 14.8502 16.7048 14.675 16.5408 14.5848C16.6504 14.5619 16.9313 14.7478 17.0693 14.8226ZM18.2288 15.5001C18.2171 15.4978 17.99 15.3731 17.9818 15.3644C17.8312 15.1944 18.472 15.5457 18.2288 15.5001ZM7.73813 5.28843C7.74196 5.29826 7.75613 5.50061 7.75362 5.50899C7.69024 5.69889 7.64732 5.08538 7.73813 5.28843Z" fill="#222222"/>
</svg>
