<svg xmlns="http://www.w3.org/2000/svg" viewBox="0 0 127.14 96.36" aria-hidden="true">
  <path fill="#5865F2" d="M107.7 8.07A105.15 105.15 0 0 0 81.47 0a72.06 72.06 0 0 0-3.36 6.83 97.68 97.68 0 0 0-29.11 0A72.37 72.37 0 0 0 45.64 0a105.89 105.89 0 0 0-26.24 8.09C2.79 33.35-1.71 58  .54 82.32a105.73 105.73 0 0 0 32.17 14.04 77.7 77.7 0 0 0 6.89-11.14 68.42 68.42 0 0 1-10.84-5.18c.91-.66 1.8-1.35 2.66-2.08a75.57 75.57 0 0 0 64.32 0c.87.73 1.76 1.42 2.67 2.08a68.68 68.68 0 0 1-10.87 5.19 77 77 0 0 0 6.89 11.13A105.25 105.25 0 0 0 126.6 82.32c2.64-28.19-4.5-52.62-18.9-74.25ZM42.45 65.69C36.18 65.69 31 59.93 31 52.85s5-12.84 11.43-12.84S54 45.78 53.89 52.85c0 7.08-5.01 12.84-11.44 12.84Zm42.24 0c-6.27 0-11.43-5.76-11.43-12.84S78.3 40.01 84.69 40.01 96.12 45.78 96.12 52.85c0 7.08-5 12.84-11.43 12.84Z"/>
</svg>
